<?xml version="1.0" encoding="UTF-8"?><svg id="uuid-504f7c70-c702-4ff5-a75f-e17476a106d6" xmlns="http://www.w3.org/2000/svg" viewBox="0 0 16 16"><defs><style>.uuid-0a51d2ed-c21c-48d6-9f3b-670ffc43156f{fill:#fff;stroke-width:0px;}</style></defs><path class="uuid-0a51d2ed-c21c-48d6-9f3b-670ffc43156f" d="M7.03,7.68c.55-.26.84-.66.84-1.28,0-1.22-.91-1.52-1.96-1.52h-2.89v6.12h2.97c1.11,0,2.16-.53,2.16-1.78,0-.77-.36-1.34-1.12-1.55h0ZM4.37,5.93h1.26c.49,0,.92.14.92.7,0,.52-.34.73-.82.73h-1.36s0-1.43,0-1.43ZM5.81,9.96h-1.44v-1.69h1.47c.59,0,.97.25.97.87s-.45.81-.99.81h0ZM12,5.81h-2.48v-.6h2.48v.6h0ZM12.97,8.85c0-1.31-.77-2.4-2.16-2.4s-2.27,1.02-2.27,2.35.87,2.33,2.27,2.33c1.06,0,1.74-.48,2.07-1.49h-1.07c-.12.38-.59.58-.96.58-.71,0-1.09-.42-1.09-1.13h3.2c0-.07.01-.15.01-.23ZM9.77,8.31c.04-.58.43-.95,1.01-.95s.92.36.97.95h-1.98Z"/></svg>