<?xml version="1.0" encoding="utf-8"?>
<!-- Generator: Adobe Illustrator 28.1.0, SVG Export Plug-In . SVG Version: 6.00 Build 0)  -->
<svg version="1.1" id="Layer_1" xmlns="http://www.w3.org/2000/svg" xmlns:xlink="http://www.w3.org/1999/xlink" x="0px" y="0px"
	 viewBox="0 0 16 16" style="enable-background:new 0 0 16 16;" xml:space="preserve">
<style type="text/css">
	.st0{fill:none;}
	.st1{fill:#FFFFFF;}
</style>
<g>
	<path class="st0" d="M25,0.25c-4.27,0-7.75,3.48-7.75,7.75c0,4.27,3.48,7.75,7.75,7.75s7.75-3.48,7.75-7.75
		C32.75,3.73,29.27,0.25,25,0.25z M27.95,4.97h1.01V6.7l-0.17,2.16h-0.71l-0.13-2.15V4.97z M27.25,11.03h-0.99V9.04
		c0-0.83,0-1.53,0.01-2.12c-0.07,0.17-0.15,0.35-0.23,0.55l-1.52,3.56h-0.81l-1.53-3.56c-0.08-0.2-0.16-0.38-0.23-0.55
		c0.01,0.6,0.02,1.31,0.02,2.12v1.99h-0.99V4.97h1.17l1.43,3.37c0.17,0.4,0.35,0.83,0.54,1.31c0.28-0.69,0.46-1.15,0.57-1.41
		l1.38-3.27h1.18V11.03z M29.03,11.03h-1.16V9.92h1.16V11.03z"/>
</g>
<g>
	<g>
		<path class="st1" d="M27.25,4.97v6.06h-0.99V9.04c0-0.83,0-1.53,0.01-2.12c-0.07,0.17-0.15,0.35-0.23,0.55l-1.52,3.56h-0.81
			l-1.53-3.56c-0.08-0.2-0.16-0.38-0.23-0.55c0.01,0.6,0.02,1.31,0.02,2.12v1.99h-0.99V4.97h1.17l1.43,3.37
			c0.17,0.4,0.35,0.83,0.54,1.31c0.28-0.69,0.46-1.15,0.57-1.41l1.38-3.27H27.25z"/>
	</g>
	<g>
		<polygon class="st1" points="28.96,4.97 28.96,6.7 28.79,8.86 28.08,8.86 27.95,6.71 27.95,4.97 		"/>
		<rect x="27.87" y="9.92" class="st1" width="1.16" height="1.11"/>
	</g>
</g>
<path class="st1" d="M40.17,7.68c0.55-0.26,0.84-0.66,0.84-1.28c0-1.22-0.91-1.52-1.96-1.52h-2.89V11h2.97
	c1.11,0,2.16-0.53,2.16-1.78C41.29,8.46,40.92,7.89,40.17,7.68L40.17,7.68z M37.51,5.93h1.26c0.49,0,0.92,0.14,0.92,0.7
	c0,0.52-0.34,0.73-0.82,0.73h-1.36C37.51,7.35,37.51,5.93,37.51,5.93z M38.95,9.96h-1.44V8.28h1.47c0.59,0,0.97,0.25,0.97,0.87
	C39.94,9.77,39.5,9.96,38.95,9.96L38.95,9.96z M45.14,5.81h-2.48V5.2h2.48V5.81L45.14,5.81z M46.11,8.85c0-1.31-0.77-2.4-2.16-2.4
	c-1.35,0-2.27,1.02-2.27,2.35c0,1.38,0.87,2.33,2.27,2.33c1.06,0,1.74-0.48,2.07-1.49h-1.07c-0.12,0.38-0.59,0.58-0.96,0.58
	c-0.71,0-1.09-0.42-1.09-1.13h3.2C46.11,9.01,46.11,8.93,46.11,8.85z M42.91,8.31c0.04-0.58,0.43-0.95,1.01-0.95
	c0.61,0,0.92,0.36,0.97,0.95H42.91z"/>
<g>
	<path class="st1" d="M6.1,10.3c0.04,0.04,0.06,0.06,0.06,0.06s0,0,0.01-0.01C6.14,10.34,6.12,10.32,6.1,10.3z M6.1,10.3
		c0.04,0.04,0.06,0.06,0.06,0.06s0,0,0.01-0.01C6.14,10.34,6.12,10.32,6.1,10.3z M6.1,10.3c0.04,0.04,0.06,0.06,0.06,0.06
		s0,0,0.01-0.01C6.14,10.34,6.12,10.32,6.1,10.3z M6.1,10.3c0.04,0.04,0.06,0.06,0.06,0.06s0,0,0.01-0.01
		C6.14,10.34,6.12,10.32,6.1,10.3z M6.1,10.3c0.04,0.04,0.06,0.06,0.06,0.06s0,0,0.01-0.01C6.14,10.34,6.12,10.32,6.1,10.3z
		 M6.1,10.3c0.04,0.04,0.06,0.06,0.06,0.06s0,0,0.01-0.01C6.14,10.34,6.12,10.32,6.1,10.3z M6.1,10.3c0.04,0.04,0.06,0.06,0.06,0.06
		s0,0,0.01-0.01C6.14,10.34,6.12,10.32,6.1,10.3z M6.1,10.3c0.04,0.04,0.06,0.06,0.06,0.06s0,0,0.01-0.01
		C6.14,10.34,6.12,10.32,6.1,10.3z M6.1,10.3c0.04,0.04,0.06,0.06,0.06,0.06s0,0,0.01-0.01C6.14,10.34,6.12,10.32,6.1,10.3z"/>
	<path class="st1" d="M11.48,7.29c-0.05-0.23-0.12-0.46-0.21-0.67c-0.09-0.21-0.2-0.41-0.33-0.6c-0.12-0.19-0.27-0.37-0.43-0.53
		c-0.16-0.16-0.34-0.31-0.52-0.43C9.8,4.93,9.59,4.82,9.38,4.73C9.17,4.64,8.94,4.57,8.72,4.52c-0.47-0.09-0.97-0.09-1.43,0
		C7.06,4.57,6.83,4.64,6.62,4.73c-0.21,0.09-0.41,0.2-0.6,0.33C5.83,5.18,5.65,5.33,5.49,5.49C5.33,5.65,5.18,5.83,5.06,6.02
		C4.93,6.2,4.82,6.41,4.73,6.62C4.64,6.83,4.57,7.06,4.52,7.29S4.45,7.76,4.45,8s0.02,0.48,0.07,0.72c0.05,0.22,0.12,0.45,0.21,0.66
		c0.09,0.21,0.2,0.42,0.33,0.61c0.12,0.18,0.27,0.36,0.43,0.52c0.16,0.16,0.34,0.31,0.53,0.43c0.18,0.13,0.39,0.24,0.6,0.33
		c0.21,0.09,0.43,0.16,0.67,0.21c0.23,0.05,0.47,0.07,0.71,0.07s0.48-0.02,0.71-0.07s0.46-0.12,0.67-0.21
		c0.21-0.09,0.42-0.2,0.61-0.33c0.18-0.12,0.36-0.27,0.52-0.43c0.16-0.16,0.31-0.34,0.43-0.52c0.13-0.2,0.24-0.4,0.33-0.61
		c0.09-0.21,0.16-0.44,0.21-0.66c0.05-0.24,0.07-0.48,0.07-0.72S11.53,7.52,11.48,7.29z M7.38,5.13c0.9-0.2,1.84,0.05,2.53,0.64
		C9.8,5.9,9.38,6.41,8.44,6.78C8,5.98,7.53,5.33,7.38,5.13z M6.71,5.36C6.82,5.51,7.3,6.17,7.76,6.99C6.5,7.31,5.41,7.33,5.14,7.33
		C5.34,6.48,5.92,5.75,6.71,5.36z M5.77,9.91C5.31,9.38,5.06,8.7,5.06,8V7.96c0.29,0,1.62-0.02,3-0.42c0.07,0.14,0.14,0.28,0.2,0.42
		c-0.03,0-0.05,0.01-0.07,0.02C6.77,8.44,5.95,9.63,5.77,9.91z M6.16,10.36c0,0-0.02-0.02-0.06-0.06c0.02,0.02,0.04,0.04,0.07,0.05
		C6.16,10.36,6.16,10.36,6.16,10.36z M8,10.94c-0.64,0-1.27-0.21-1.77-0.6c0.1-0.2,0.72-1.24,2.27-1.79
		c0.39,1.02,0.56,1.88,0.61,2.17C8.76,10.87,8.39,10.94,8,10.94z M9.71,10.39C9.66,10.12,9.5,9.33,9.16,8.38
		c0.83-0.11,1.55,0.07,1.73,0.13C10.76,9.26,10.33,9.95,9.71,10.39z M9.6,7.78c-0.22,0-0.44,0.01-0.66,0.04
		C8.92,7.78,8.9,7.74,8.89,7.7C8.83,7.57,8.78,7.44,8.71,7.31c0.97-0.41,1.46-0.96,1.6-1.13c0.39,0.49,0.61,1.1,0.63,1.73
		C10.75,7.87,10.22,7.78,9.6,7.78z"/>
</g>
</svg>
