<?xml version="1.0" encoding="UTF-8"?><svg id="uuid-41ce4444-b0c2-4a54-8bdc-fd3b02c0e3b1" xmlns="http://www.w3.org/2000/svg" viewBox="0 0 16 16"><defs><style>.uuid-510211dd-34bb-4c05-892b-e1ac18bac838{fill:#fff;fill-rule:evenodd;stroke-width:0px;}</style></defs><path class="uuid-510211dd-34bb-4c05-892b-e1ac18bac838" d="M10.97,7.39c-.04-.19-.1-.39-.18-.57-.08-.18-.17-.35-.28-.51-.11-.16-.23-.31-.37-.45-.14-.14-.29-.26-.45-.37-.16-.11-.34-.2-.51-.28-.18-.08-.37-.14-.57-.18-.2-.04-.4-.06-.61-.06s-.41.02-.61.06c-.19.04-.39.1-.57.18-.18.08-.35.17-.51.28-.16.11-.31.23-.45.37-.14.14-.26.29-.37.45-.11.16-.2.33-.28.51-.08.18-.14.37-.18.57-.04.2-.06.4-.06.61s.02.41.06.61c.04.19.1.39.18.57.08.18.17.35.28.51.11.16.23.31.37.45.14.14.29.26.45.37.16.11.34.2.51.28.18.08.37.14.57.18.2.04.4.06.61.06s.41-.02.61-.06c.19-.04.39-.1.57-.18.18-.08.35-.17.51-.28.16-.11.31-.23.45-.37.14-.14.26-.29.37-.45.11-.16.2-.34.28-.51.08-.18.14-.37.18-.57.04-.2.06-.4.06-.61,0-.21-.02-.41-.06-.61ZM10.59,7.97s-.91-.2-1.8-.08c-.02-.04-.04-.09-.06-.13-.05-.13-.11-.25-.17-.38,1.02-.42,1.44-1.02,1.44-1.02.36.44.58,1,.59,1.62ZM9.71,6.06s-.37.57-1.35.94c-.44-.81-.93-1.46-.97-1.51.2-.05.4-.07.61-.07.66,0,1.25.24,1.71.65ZM7.38,5.49s0,0,0,0c0,0,0,0,0,0,0,0,0,0,0,0ZM6.9,5.66s.51.7.96,1.49c-1.24.33-2.32.32-2.39.32.17-.8.71-1.47,1.43-1.81ZM5.41,8s0-.05,0-.08c.05,0,1.32.03,2.66-.37.07.15.15.29.21.44-.03,0-.07.02-.1.03-1.4.45-2.1,1.71-2.1,1.71,0,0,0,0,0,0-.41-.46-.66-1.06-.66-1.73ZM8,10.59c-.63,0-1.2-.22-1.65-.59.03.03.06.05.06.05,0,0,.5-1.08,2.03-1.62,0,0,.01,0,.02,0,.36.95.51,1.74.55,1.96-.31.13-.65.21-1.01.21ZM9.45,10.15c-.03-.16-.16-.92-.5-1.85.84-.13,1.56.1,1.61.11-.12.72-.53,1.34-1.11,1.74Z"/></svg>