<?xml version="1.0" encoding="utf-8"?>
<!-- Generator: Adobe Illustrator 28.1.0, SVG Export Plug-In . SVG Version: 6.00 Build 0)  -->
<svg version="1.1" id="Layer_1" xmlns="http://www.w3.org/2000/svg" xmlns:xlink="http://www.w3.org/1999/xlink" x="0px" y="0px"
	 viewBox="0 0 16 16" style="enable-background:new 0 0 16 16;" xml:space="preserve">
<style type="text/css">
	.st0{fill:none;}
	.st1{fill:#FFFFFF;stroke:#FFFFFF;stroke-width:0.3;stroke-miterlimit:10;}
</style>
<circle class="st0" cx="8" cy="8" r="7.75"/>
<g>
	<path class="st1" d="M7.83,8.3l1.34-3.18h0.93v5.77H9.41V9.04c0-1.21,0.01-2.19,0.02-2.94C9.3,6.45,9.12,6.89,8.9,7.41l-1.48,3.47
		H6.81L5.32,7.41C5.1,6.89,4.93,6.45,4.79,6.1c0.02,0.75,0.03,1.73,0.03,2.94v1.85H4.12V5.12h0.93L6.44,8.4
		c0.21,0.49,0.44,1.04,0.68,1.66C7.47,9.18,7.7,8.6,7.83,8.3z"/>
	<path class="st1" d="M11.88,10.88h-0.85v-0.81h0.85V10.88z M11.66,8.71h-0.44l-0.12-2V5.12h0.71V6.7L11.66,8.71z"/>
</g>
</svg>
