<?xml version="1.0" encoding="UTF-8"?><svg id="uuid-18f0956c-1b5e-4066-9ada-d6d6c67ded76" xmlns="http://www.w3.org/2000/svg" viewBox="0 0 311.87 135"><defs><style>.uuid-62caddcd-0ad5-41b5-ac4b-93c527eedc1b{fill:#fff;stroke-width:0px;}</style></defs><path class="uuid-62caddcd-0ad5-41b5-ac4b-93c527eedc1b" d="M34.63,1.02v46.32c0,10.67-6.69,17.36-17.44,17.36S0,58.34,0,48.35v-5.42h8.04v3.98c0,7.2,3.3,11.18,9.23,11.18,3.13,0,6.01-1.44,7.54-3.81,1.44-2.12,1.95-4.91,1.95-9.82V1.02h7.87Z"/><path class="uuid-62caddcd-0ad5-41b5-ac4b-93c527eedc1b" d="M53.53,55.8h36.41v6.94h-44.28V1.02h42.76v6.94h-34.89v19.73h33.62v6.94h-33.62v21.17Z"/><path class="uuid-62caddcd-0ad5-41b5-ac4b-93c527eedc1b" d="M146.36,62.74h-8.89l-31.92-50.04v50.04h-7.45V1.02h8.55l32.26,50.47V1.02h7.45v61.73Z"/><path class="uuid-62caddcd-0ad5-41b5-ac4b-93c527eedc1b" d="M192.95,19.14c-.08-8.04-5.59-12.53-15.41-12.53-8.3,0-13.8,4.15-13.8,10.41,0,4.74,2.71,7.11,10.16,9.14l15.5,4.15c8.38,2.29,13.12,7.87,13.12,15.5,0,5.33-2.62,10.84-6.77,14.14-3.98,3.05-9.99,4.74-17.36,4.74-9.4,0-16.51-3.05-20.75-8.81-2.46-3.39-3.56-7.11-3.64-12.79h7.45c-.08,3.81.93,6.77,3.22,9.48,2.96,3.56,7.54,5.17,14.23,5.17,5,0,8.89-.93,11.35-2.62,2.62-1.86,4.4-5.25,4.4-8.55,0-4.83-3.56-7.96-11.35-9.99l-15.33-4.06c-8.13-2.12-12.11-6.86-12.11-14.39,0-11.18,8.38-18.12,21.93-18.12,14.23,0,22.52,7.03,22.61,19.14h-7.45Z"/><path class="uuid-62caddcd-0ad5-41b5-ac4b-93c527eedc1b" d="M219.05,55.8h36.41v6.94h-44.28V1.02h42.76v6.94h-34.89v19.73h33.62v6.94h-33.62v21.17Z"/><path class="uuid-62caddcd-0ad5-41b5-ac4b-93c527eedc1b" d="M311.87,62.74h-8.89l-31.92-50.04v50.04h-7.45V1.02h8.55l32.26,50.47V1.02h7.45v61.73Z"/><path class="uuid-62caddcd-0ad5-41b5-ac4b-93c527eedc1b" d="M9.64,121.08l-4.22,11.99H0l14.24-39.93h6.57l14.02,39.93h-5.7l-4.11-11.99h-15.39ZM17.47,98.62l-6.57,18.18h12.71l-6.13-18.18Z"/><path class="uuid-62caddcd-0ad5-41b5-ac4b-93c527eedc1b" d="M69.13,133.07h-5.75l-20.65-32.37v32.37h-4.82v-39.93h5.53l20.87,32.64v-32.64h4.82v39.93Z"/><path class="uuid-62caddcd-0ad5-41b5-ac4b-93c527eedc1b" d="M76.32,93.14h15.39c10.13,0,16.27,7.56,16.27,19.94s-6.19,19.99-16.27,19.99h-15.39v-39.93ZM90.83,128.58c7.89,0,12.05-5.37,12.05-15.45s-4.16-15.5-12.05-15.5h-9.42v30.95h9.42Z"/><path class="uuid-62caddcd-0ad5-41b5-ac4b-93c527eedc1b" d="M148.42,71.96v45.86c0,10.56-6.62,17.19-17.27,17.19s-17.02-6.29-17.02-16.18v-5.37h7.96v3.94c0,7.13,3.27,11.07,9.14,11.07,3.1,0,5.95-1.42,7.46-3.77,1.43-2.1,1.93-4.86,1.93-9.72v-43.01h7.8Z"/><path class="uuid-62caddcd-0ad5-41b5-ac4b-93c527eedc1b" d="M205.87,71.96v42.92c0,12.24-9.22,20.12-23.56,20.12s-23.39-7.71-23.39-20.12v-42.92h7.8v42.92c0,4.61,1.43,7.71,4.44,10.06,2.93,2.1,6.62,3.19,11.15,3.19,9.81,0,15.76-5.03,15.76-13.25v-42.92h7.8Z"/><path class="uuid-62caddcd-0ad5-41b5-ac4b-93c527eedc1b" d="M224.33,105.24v27.83h-7.88v-61.11h7.8v26.41h31.44v-26.41h7.8v61.11h-7.8v-27.83h-31.35Z"/><path class="uuid-62caddcd-0ad5-41b5-ac4b-93c527eedc1b" d="M281.69,126.2h30.18v6.87h-37.98v-61.11h7.8v54.24Z"/></svg>