<?xml version="1.0" encoding="utf-8"?>
<!-- Generator: Adobe Illustrator 28.1.0, SVG Export Plug-In . SVG Version: 6.00 Build 0)  -->
<svg version="1.1" id="Layer_1" xmlns="http://www.w3.org/2000/svg" xmlns:xlink="http://www.w3.org/1999/xlink" x="0px" y="0px"
	 viewBox="0 0 16 16" style="enable-background:new 0 0 16 16;" xml:space="preserve">
<style type="text/css">
	.st0{fill:none;}
	.st1{fill:#ffffff;}
</style>
<g>
	<path class="st0" d="M25,0.25c-4.27,0-7.75,3.48-7.75,7.75c0,4.27,3.48,7.75,7.75,7.75s7.75-3.48,7.75-7.75
		C32.75,3.73,29.27,0.25,25,0.25z M27.95,4.97h1.01V6.7l-0.17,2.16h-0.71l-0.13-2.15V4.97z M27.25,11.03h-0.99V9.04
		c0-0.83,0-1.53,0.01-2.12c-0.07,0.17-0.15,0.35-0.23,0.55l-1.52,3.56h-0.81l-1.53-3.56c-0.08-0.2-0.16-0.38-0.23-0.55
		c0.01,0.6,0.02,1.31,0.02,2.12v1.99h-0.99V4.97h1.17l1.43,3.37c0.17,0.4,0.35,0.83,0.54,1.31c0.28-0.69,0.46-1.15,0.57-1.41
		l1.38-3.27h1.18V11.03z M29.03,11.03h-1.16V9.92h1.16V11.03z"/>
</g>
<g>
	<g>
		<path class="st1" d="M27.25,4.97v6.06h-0.99V9.04c0-0.83,0-1.53,0.01-2.12c-0.07,0.17-0.15,0.35-0.23,0.55l-1.52,3.56h-0.81
			l-1.53-3.56c-0.08-0.2-0.16-0.38-0.23-0.55c0.01,0.6,0.02,1.31,0.02,2.12v1.99h-0.99V4.97h1.17l1.43,3.37
			c0.17,0.4,0.35,0.83,0.54,1.31c0.28-0.69,0.46-1.15,0.57-1.41l1.38-3.27H27.25z"/>
		<path class="st1" d="M29.03,9.92v1.11h-1.16V9.92H29.03z"/>
	</g>
</g>
</svg>
