<?xml version="1.0" encoding="UTF-8"?>
<svg id="uuid-316fbd11-0448-4092-93a9-aac5498dc2c8" data-name="Layer 1" xmlns="http://www.w3.org/2000/svg" viewBox="0 0 500 216.44">
  <defs>
    <style>
      .uuid-e1aad274-c600-4323-983a-ad377a584b33 {
        fill: #fff;
        stroke-width: 0px;
      }
    </style>
  </defs>
  <g>
    <path class="uuid-e1aad274-c600-4323-983a-ad377a584b33" d="M55.52,1.63v74.26c0,17.11-10.72,27.83-27.96,27.83S0,93.53,0,77.51v-8.69h12.9v6.38c0,11.54,5.29,17.92,14.8,17.92,5.02,0,9.64-2.31,12.08-6.11,2.31-3.39,3.12-7.87,3.12-15.75V1.63h12.62Z"/>
    <path class="uuid-e1aad274-c600-4323-983a-ad377a584b33" d="M85.83,89.46h58.37v11.13h-71V1.63h68.55v11.13h-55.93v31.63h53.89v11.13h-53.89v33.94Z"/>
    <path class="uuid-e1aad274-c600-4323-983a-ad377a584b33" d="M234.64,100.59h-14.25l-51.18-80.23v80.23h-11.95V1.63h13.71l51.72,80.91V1.63h11.95v98.96Z"/>
    <path class="uuid-e1aad274-c600-4323-983a-ad377a584b33" d="M309.34,30.68c-.14-12.9-8.96-20.09-24.71-20.09-13.3,0-22.13,6.65-22.13,16.7,0,7.6,4.34,11.4,16.29,14.66l24.84,6.65c13.44,3.66,21.04,12.62,21.04,24.84,0,8.55-4.21,17.38-10.86,22.67-6.38,4.89-16.02,7.6-27.83,7.6-15.07,0-26.47-4.89-33.26-14.12-3.94-5.43-5.7-11.4-5.84-20.5h11.95c-.14,6.11,1.49,10.86,5.16,15.2,4.75,5.7,12.08,8.28,22.81,8.28,8.01,0,14.25-1.49,18.19-4.21,4.21-2.99,7.06-8.42,7.06-13.71,0-7.74-5.7-12.76-18.19-16.02l-24.57-6.52c-13.03-3.39-19.41-11-19.41-23.08,0-17.92,13.44-29.05,35.16-29.05,22.81,0,36.11,11.27,36.25,30.68h-11.95Z"/>
    <path class="uuid-e1aad274-c600-4323-983a-ad377a584b33" d="M351.18,89.46h58.37v11.13h-71V1.63h68.56v11.13h-55.93v31.63h53.89v11.13h-53.89v33.94Z"/>
    <path class="uuid-e1aad274-c600-4323-983a-ad377a584b33" d="M500,100.59h-14.25l-51.18-80.23v80.23h-11.95V1.63h13.71l51.72,80.91V1.63h11.95v98.96Z"/>
  </g>
  <g>
    <g>
      <path class="uuid-e1aad274-c600-4323-983a-ad377a584b33" d="M15.45,194.11l-6.76,19.23H0l22.83-64.01h10.54l22.48,64.01h-9.13l-6.59-19.23H15.45ZM28.01,158.11l-10.54,29.15h20.37l-9.83-29.15Z"/>
      <path class="uuid-e1aad274-c600-4323-983a-ad377a584b33" d="M110.83,213.34h-9.22l-33.1-51.9v51.9h-7.73v-64.01h8.87l33.46,52.33v-52.33h7.73v64.01Z"/>
      <path class="uuid-e1aad274-c600-4323-983a-ad377a584b33" d="M122.35,149.33h24.67c16.24,0,26.08,12.12,26.08,31.96s-9.92,32.05-26.08,32.05h-24.67v-64.01ZM145.62,206.14c12.64,0,19.32-8.61,19.32-24.76s-6.67-24.85-19.32-24.85h-15.1v49.61h15.1Z"/>
    </g>
    <path class="uuid-e1aad274-c600-4323-983a-ad377a584b33" d="M237.95,115.37v73.52c0,16.93-10.62,27.55-27.69,27.55s-27.28-10.08-27.28-25.94v-8.6h12.77v6.32c0,11.42,5.24,17.74,14.65,17.74,4.97,0,9.54-2.28,11.96-6.05,2.28-3.36,3.09-7.8,3.09-15.59v-68.95h12.5Z"/>
    <path class="uuid-e1aad274-c600-4323-983a-ad377a584b33" d="M330.05,115.37v68.81c0,19.62-14.78,32.26-37.77,32.26s-37.5-12.37-37.5-32.26v-68.81h12.5v68.81c0,7.39,2.28,12.37,7.12,16.13,4.7,3.36,10.62,5.11,17.88,5.11,15.72,0,25.27-8.06,25.27-21.24v-68.81h12.5Z"/>
    <path class="uuid-e1aad274-c600-4323-983a-ad377a584b33" d="M359.65,168.72v44.62h-12.63v-97.98h12.5v42.34h50.4v-42.34h12.5v97.98h-12.5v-44.62h-50.27Z"/>
    <path class="uuid-e1aad274-c600-4323-983a-ad377a584b33" d="M451.61,202.32h48.39v11.02h-60.88v-97.98h12.5v86.96Z"/>
  </g>
</svg>